<svg xmlns="http://www.w3.org/2000/svg" viewBox="0 0 400 400" fill="none" stroke="#111111" stroke-width="2.2" stroke-linecap="round" stroke-linejoin="round">
<path d="M 225.63 68.15 L 228.69 68.43 L 231.75 68.78 L 234.80 69.20 L 237.86 69.69 L 240.91 70.26 L 243.95 70.89 L 246.99 71.60 L 250.01 72.38 L 253.03 73.23 L 256.03 74.15 L 259.02 75.14 L 261.99 76.21 L 264.95 77.34 L 267.88 78.54 L 270.79 79.82 L 273.68 81.16 L 276.55 82.58 L 279.39 84.06 L 282.20 85.61 L 284.98 87.23 L 287.73 88.92 L 290.44 90.67 L 293.13 92.49 L 295.77 94.38 L 298.38 96.33 L 300.95 98.34 L 303.48 100.42 L 305.96 102.56 L 308.41 104.76 L 310.80 107.03 L 313.15 109.35 L 315.45 111.73 L 317.70 114.17 L 319.90 116.67 L 322.05 119.22 L 324.14 121.82 L 326.18 124.48 L 328.16 127.20 L 330.08 129.96 L 331.94 132.77 L 333.74 135.63 L 335.48 138.54 L 337.16 141.50 L 338.77 144.50 L 340.32 147.54 L 341.79 150.62 L 343.21 153.75 L 344.55 156.91 L 345.82 160.11 L 347.02 163.34 L 348.15 166.61 L 349.21 169.91 L 350.19 173.25 L 351.10 176.61 L 351.93 180.00 L 352.69 183.41 L 353.37 186.85 L 353.70 190.33 L 353.88 193.82 L 353.98 197.31 L 354.00 200.81 L 353.94 204.30 L 353.80 207.79 L 353.59 211.28 L 353.29 214.76 L 352.92 218.23 L 352.46 221.70 L 351.93 225.15 L 351.32 228.59 L 350.63 232.02 L 349.87 235.43 L 349.03 238.82 L 348.11 242.19 L 347.11 245.54 L 346.04 248.86 L 344.90 252.17 L 343.67 255.44 L 342.38 258.68 L 341.01 261.90 L 339.57 265.08 L 338.06 268.23 L 336.48 271.35 L 334.82 274.43 L 333.10 277.47 L 331.31 280.46 L 329.45 283.42 L 327.52 286.34 L 325.53 289.21 L 323.47 292.03 L 321.35 294.81 L 319.17 297.54 L 316.93 300.22 L 314.62 302.85 L 312.26 305.42 L 309.84 307.94 L 307.36 310.40 L 304.83 312.81 L 302.24 315.16 L 299.61 317.45 L 296.92 319.68 L 294.18 321.85 L 291.39 323.95 L 288.55 326.00 L 285.67 327.97 L 282.74 329.88 L 279.78 331.73 L 276.77 333.50 L 273.72 335.21 L 270.63 336.85 L 267.51 338.41 L 264.35 339.91 L 261.16 341.33 L 257.94 342.69 L 254.69 343.96 L 251.41 345.17 L 248.10 346.30 L 244.77 347.35 L 241.41 348.33 L 238.04 349.23 L 234.64 350.05 L 231.23 350.80 L 227.80 351.47 L 224.36 352.06 L 220.90 352.58 L 217.43 353.01 L 213.96 353.37 L 210.47 353.64 L 206.99 353.84 L 203.49 353.96 L 200.00 354.00 L 196.51 353.96 L 193.01 353.84 L 189.53 353.64 L 186.04 353.37 L 182.57 353.01 L 179.10 352.58 L 175.64 352.06 L 172.20 351.47 L 168.77 350.80 L 165.36 350.05 L 161.96 349.23 L 158.59 348.33 L 155.23 347.35 L 151.90 346.30 L 148.59 345.17 L 145.31 343.96 L 142.06 342.69 L 138.84 341.33 L 135.65 339.91 L 132.49 338.41 L 129.37 336.85 L 126.28 335.21 L 123.23 333.50 L 120.22 331.73 L 117.26 329.88 L 114.33 327.97 L 111.45 326.00 L 108.61 323.95 L 105.82 321.85 L 103.08 319.68 L 100.39 317.45 L 97.76 315.16 L 95.17 312.81 L 92.64 310.40 L 90.16 307.94 L 87.74 305.42 L 85.38 302.85 L 83.07 300.22 L 80.83 297.54 L 78.65 294.81 L 76.53 292.03 L 74.47 289.21 L 72.48 286.34 L 70.55 283.42 L 68.69 280.46 L 66.90 277.47 L 65.18 274.43 L 63.52 271.35 L 61.94 268.23 L 60.43 265.08 L 58.99 261.90 L 57.62 258.68 L 56.33 255.44 L 55.10 252.17 L 53.96 248.86 L 52.89 245.54 L 51.89 242.19 L 50.97 238.82 L 50.13 235.43 L 49.37 232.02 L 48.68 228.59 L 48.07 225.15 L 47.54 221.70 L 47.08 218.23 L 46.71 214.76 L 46.41 211.28 L 46.20 207.79 L 46.06 204.30 L 46.00 200.81 L 46.02 197.31 L 46.12 193.82 L 46.30 190.33 L 46.56 186.85 L 46.90 183.37 L 47.32 179.90 L 47.81 176.44 L 48.39 172.99 L 49.04 169.56 L 49.77 166.14 L 50.57 162.74 L 51.46 159.36 L 52.42 156.00 L 53.45 152.67 L 54.57 149.35 L 55.75 146.07 L 57.01 142.81 L 58.35 139.58 L 59.75 136.38 L 61.23 133.22 L 62.78 130.09 L 64.41 126.99 L 66.10 123.93 L 67.86 120.91 L 69.69 117.94 L 71.58 115.00 L 73.54 112.11 L 75.57 109.26 L 77.66 106.46 L 79.81 103.71 L 82.03 101.01 L 84.31 98.36 L 86.64 95.76 L 89.04 93.22 L 91.49 90.73 L 93.99 88.29 L 96.56 85.92 L 99.17 83.60 L 101.84 81.34 L 104.55 79.14 L 107.32 77.01 L 110.13 74.94 L 113.00 72.93 L 115.90 70.99 L 118.85 69.12 L 121.84 67.31 L 124.87 65.57 L 127.94 63.90 L 131.05 62.30 L 134.19 60.77 L 137.36 59.31 L 140.57 57.93 L 143.81 56.62 L 147.08 55.38 L 150.37 54.22 L 153.69 53.13 L 157.04 52.11 L 160.40 51.18 L 163.79 50.32 L 167.19 49.53 L 170.62 48.83 L 179.77 95.95 L 177.42 96.43 L 175.07 96.97 L 172.74 97.56 L 170.43 98.21 L 168.13 98.91 L 165.84 99.66 L 163.57 100.46 L 161.32 101.31 L 159.09 102.21 L 156.89 103.16 L 154.70 104.17 L 152.54 105.22 L 150.40 106.32 L 148.29 107.47 L 146.20 108.67 L 144.14 109.91 L 142.11 111.20 L 140.11 112.54 L 138.14 113.92 L 136.21 115.34 L 134.30 116.81 L 132.43 118.33 L 130.60 119.88 L 128.80 121.47 L 127.03 123.11 L 125.31 124.79 L 123.62 126.50 L 121.97 128.25 L 120.37 130.04 L 118.80 131.86 L 117.27 133.72 L 115.79 135.62 L 114.35 137.55 L 112.96 139.50 L 111.61 141.49 L 110.30 143.52 L 109.05 145.56 L 107.83 147.64 L 106.67 149.75 L 105.55 151.88 L 104.49 154.03 L 103.47 156.21 L 102.50 158.41 L 101.58 160.64 L 100.71 162.88 L 99.90 165.14 L 99.13 167.42 L 98.42 169.72 L 97.76 172.03 L 97.15 174.36 L 96.59 176.70 L 96.09 179.05 L 95.64 181.41 L 95.25 183.78 L 94.91 186.16 L 94.62 188.55 L 94.39 190.95 L 94.21 193.34 L 94.09 195.75 L 94.02 198.15 L 94.00 200.56 L 94.04 202.96 L 94.14 205.36 L 94.28 207.76 L 94.49 210.16 L 94.75 212.55 L 95.06 214.94 L 95.42 217.31 L 95.84 219.68 L 96.32 222.04 L 96.84 224.39 L 97.42 226.72 L 98.06 229.04 L 98.74 231.35 L 99.48 233.63 L 100.27 235.91 L 101.11 238.16 L 102.00 240.39 L 102.94 242.61 L 103.93 244.80 L 104.97 246.97 L 106.06 249.11 L 107.20 251.23 L 108.39 253.32 L 109.62 255.38 L 110.90 257.42 L 112.23 259.43 L 113.60 261.40 L 115.01 263.35 L 116.47 265.26 L 117.97 267.14 L 119.52 268.98 L 121.10 270.79 L 122.73 272.56 L 124.40 274.30 L 126.10 275.99 L 127.84 277.65 L 129.62 279.27 L 131.44 280.84 L 133.29 282.38 L 135.18 283.87 L 137.10 285.32 L 139.05 286.72 L 141.03 288.08 L 143.05 289.40 L 145.09 290.67 L 147.16 291.89 L 149.26 293.07 L 151.38 294.19 L 153.53 295.27 L 155.71 296.30 L 157.90 297.28 L 160.12 298.21 L 162.36 299.09 L 164.62 299.92 L 166.89 300.70 L 169.19 301.42 L 171.49 302.10 L 173.82 302.72 L 176.16 303.28 L 178.50 303.80 L 180.86 304.26 L 183.24 304.67 L 185.61 305.02 L 188.00 305.32 L 190.39 305.56 L 192.79 305.75 L 195.19 305.89 L 197.60 305.97 L 200.00 306.00 L 202.40 305.97 L 204.81 305.89 L 207.21 305.75 L 209.61 305.56 L 212.00 305.32 L 214.39 305.02 L 216.76 304.67 L 219.14 304.26 L 221.50 303.80 L 223.84 303.28 L 226.18 302.72 L 228.51 302.10 L 230.81 301.42 L 233.11 300.70 L 235.38 299.92 L 237.64 299.09 L 239.88 298.21 L 242.10 297.28 L 244.29 296.30 L 246.47 295.27 L 248.62 294.19 L 250.74 293.07 L 252.84 291.89 L 254.91 290.67 L 256.95 289.40 L 258.97 288.08 L 260.95 286.72 L 262.90 285.32 L 264.82 283.87 L 266.71 282.38 L 268.56 280.84 L 270.38 279.27 L 272.16 277.65 L 273.90 275.99 L 275.60 274.30 L 277.27 272.56 L 278.90 270.79 L 280.48 268.98 L 282.03 267.14 L 283.53 265.26 L 284.99 263.35 L 286.40 261.40 L 287.77 259.43 L 289.10 257.42 L 290.38 255.38 L 291.61 253.32 L 292.80 251.23 L 293.94 249.11 L 295.03 246.97 L 296.07 244.80 L 297.06 242.61 L 298.00 240.39 L 298.89 238.16 L 299.73 235.91 L 300.52 233.63 L 301.26 231.35 L 301.94 229.04 L 302.58 226.72 L 303.16 224.39 L 303.68 222.04 L 304.16 219.68 L 304.58 217.31 L 304.94 214.94 L 305.25 212.55 L 305.51 210.16 L 305.72 207.76 L 305.86 205.36 L 305.96 202.96 L 306.00 200.56 L 305.98 198.15 L 305.91 195.75 L 305.79 193.34 L 305.68 190.94 L 305.79 188.51 L 305.84 186.07 L 305.84 183.62 L 305.78 181.16 L 305.66 178.69 L 305.49 176.23 L 305.25 173.76 L 304.96 171.29 L 304.62 168.81 L 304.21 166.34 L 303.74 163.87 L 303.22 161.41 L 302.64 158.95 L 301.99 156.50 L 301.30 154.05 L 300.54 151.62 L 299.72 149.19 L 298.84 146.78 L 297.91 144.38 L 296.92 142.00 L 295.87 139.63 L 294.76 137.28 L 293.60 134.95 L 292.37 132.64 L 291.10 130.35 L 289.76 128.09 L 288.37 125.85 L 286.92 123.64 L 285.42 121.45 L 283.87 119.29 L 282.26 117.17 L 280.59 115.07 L 278.88 113.01 L 277.11 110.99 L 275.29 108.99 L 273.42 107.04 L 271.49 105.12 L 269.52 103.25 L 267.51 101.41 L 265.44 99.62 L 263.33 97.86 L 261.17 96.16 L 258.96 94.50 L 256.72 92.88 L 254.43 91.31 L 252.09 89.80 L 249.72 88.33 L 247.31 86.91 L 244.85 85.55 L 242.36 84.24 L 239.84 82.98 L 237.28 81.78 L 234.68 80.63 L 232.05 79.54 L 229.39 78.51 L 226.70 77.54 L 223.98 76.63 Z" fill="#ffffff" stroke="#111111" stroke-width="2.4"/>
<g stroke="#111111"><path d="M 258.16 92.81 Q 264.18 86.95 265.84 78.66" stroke-width="1.05"/><path d="M 267.96 100.42 Q 275.33 94.05 278.60 84.82" stroke-width="1.05"/><path d="M 276.82 108.89 Q 285.69 102.24 290.78 92.34" stroke-width="1.05"/><path d="M 284.68 118.13 Q 295.18 111.45 302.24 101.15" stroke-width="1.05"/><path d="M 291.46 128.01 Q 303.68 121.57 312.84 111.18" stroke-width="1.05"/><path d="M 297.13 138.41 Q 311.10 132.50 322.45 122.35" stroke-width="1.05"/><path d="M 301.64 149.21 Q 317.38 144.13 330.94 134.57" stroke-width="1.05"/><path d="M 304.97 160.28 Q 322.45 156.34 338.21 147.71" stroke-width="1.05"/><path d="M 307.12 171.51 Q 326.25 169.00 344.14 161.66" stroke-width="1.05"/><path d="M 308.09 182.75 Q 328.74 181.98 348.66 176.27" stroke-width="1.05"/><path d="M 308.23 193.87 Q 329.91 195.14 351.36 191.43" stroke-width="1.05"/><path d="M 308.29 204.89 Q 329.73 208.36 351.45 206.84" stroke-width="1.05"/><path d="M 307.23 215.86 Q 328.21 221.49 349.97 222.18" stroke-width="1.05"/><path d="M 305.07 226.67 Q 325.37 234.39 346.94 237.29" stroke-width="1.05"/><path d="M 301.82 237.20 Q 321.23 246.95 342.39 252.02" stroke-width="1.05"/><path d="M 297.51 247.34 Q 315.83 259.01 336.38 266.21" stroke-width="1.05"/><path d="M 292.20 257.00 Q 309.24 270.47 328.95 279.72" stroke-width="1.05"/><path d="M 285.94 266.07 Q 301.52 281.20 320.19 292.40" stroke-width="1.05"/><path d="M 278.79 274.45 Q 292.76 291.08 310.19 304.12" stroke-width="1.05"/><path d="M 270.82 282.07 Q 283.03 300.03 299.04 314.77" stroke-width="1.05"/><path d="M 262.12 288.83 Q 272.44 307.95 286.88 324.24" stroke-width="1.05"/><path d="M 252.78 294.68 Q 261.11 314.74 273.82 332.42" stroke-width="1.05"/><path d="M 242.90 299.55 Q 249.14 320.35 259.99 339.23" stroke-width="1.05"/><path d="M 232.57 303.39 Q 236.67 324.72 245.54 344.60" stroke-width="1.05"/><path d="M 221.90 306.16 Q 223.81 327.80 230.63 348.47" stroke-width="1.05"/><path d="M 211.01 307.84 Q 210.71 329.56 215.39 350.82" stroke-width="1.05"/><path d="M 200.00 308.40 Q 197.50 329.98 200.00 351.60" stroke-width="1.05"/><path d="M 188.99 307.84 Q 184.32 329.05 184.61 350.82" stroke-width="1.05"/><path d="M 178.10 306.16 Q 171.30 326.79 169.37 348.47" stroke-width="1.05"/><path d="M 167.43 303.39 Q 158.57 323.22 154.46 344.60" stroke-width="1.05"/><path d="M 157.10 299.55 Q 146.28 318.38 140.01 339.23" stroke-width="1.05"/><path d="M 147.22 294.68 Q 134.53 312.31 126.18 332.42" stroke-width="1.05"/><path d="M 137.88 288.83 Q 123.47 305.08 113.12 324.24" stroke-width="1.05"/><path d="M 129.18 282.07 Q 113.19 296.77 100.96 314.77" stroke-width="1.05"/><path d="M 121.21 274.45 Q 103.82 287.46 89.81 304.12" stroke-width="1.05"/><path d="M 114.06 266.07 Q 95.43 277.24 79.81 292.40" stroke-width="1.05"/><path d="M 107.80 257.00 Q 88.13 266.22 71.05 279.72" stroke-width="1.05"/><path d="M 102.49 247.34 Q 81.99 254.52 63.62 266.21" stroke-width="1.05"/><path d="M 98.18 237.20 Q 77.06 242.26 57.61 252.02" stroke-width="1.05"/><path d="M 94.93 226.67 Q 73.40 229.56 53.06 237.29" stroke-width="1.05"/><path d="M 92.77 215.86 Q 71.06 216.55 50.03 222.18" stroke-width="1.05"/><path d="M 91.71 204.89 Q 70.04 203.37 48.55 206.84" stroke-width="1.05"/><path d="M 91.77 193.87 Q 70.37 190.16 48.64 191.43" stroke-width="1.05"/><path d="M 92.96 182.91 Q 72.04 177.05 50.30 176.10" stroke-width="1.05"/><path d="M 95.24 172.13 Q 75.03 164.17 53.50 161.03" stroke-width="1.05"/><path d="M 98.61 161.64 Q 79.32 151.67 58.21 146.35" stroke-width="1.05"/><path d="M 103.03 151.54 Q 84.85 139.67 64.39 132.23" stroke-width="1.05"/><path d="M 108.45 141.95 Q 91.57 128.29 71.97 118.81" stroke-width="1.05"/><path d="M 114.82 132.95 Q 99.41 117.65 80.88 106.23" stroke-width="1.05"/><path d="M 122.07 124.65 Q 108.29 107.86 91.01 94.62" stroke-width="1.05"/><path d="M 130.12 117.13 Q 118.12 99.03 102.27 84.10" stroke-width="1.05"/><path d="M 138.90 110.46 Q 128.80 91.23 114.55 74.78" stroke-width="1.05"/><path d="M 148.30 104.72 Q 140.21 84.57 127.70 66.75" stroke-width="1.05"/><path d="M 158.25 99.96 Q 152.24 79.09 141.61 60.10" stroke-width="1.05"/><path d="M 168.62 96.24 Q 164.76 74.87 156.11 54.89" stroke-width="1.05"/></g>
<path d="M 240.11 68.79 L 243.85 70.00 L 247.55 71.31 L 251.22 72.72 L 254.84 74.24 L 258.42 75.86 L 261.95 77.58 L 265.42 79.40 L 268.85 81.33 L 272.22 83.34 L 275.53 85.46 L 278.77 87.67 L 281.96 89.97 L 285.07 92.36 L 288.12 94.84 L 291.09 97.40 L 293.99 100.05 L 296.81 102.78 L 299.55 105.59 L 302.22 108.48 L 304.79 111.44 L 307.28 114.48 L 309.69 117.58 L 312.00 120.76 L 314.22 123.99 L 316.35 127.30 L 318.39 130.65 L 320.32 134.07 L 322.16 137.54 L 323.90 141.06 L 325.53 144.63 L 327.07 148.25 L 328.49 151.91 L 329.82 155.60 L 331.04 159.34 L 332.15 163.10 L 333.15 166.90 L 334.04 170.73 L 334.82 174.57 L 335.50 178.44 L 336.06 182.33 L 336.51 186.23 L 336.85 190.14 L 337.07 194.06 L 337.19 197.99 L 337.19 201.92 L 337.08 205.84 L 336.85 209.76 L 336.52 213.67 L 336.07 217.58 L 335.51 221.46 L 334.84 225.33 L 334.06 229.18 L 333.17 233.01 L 332.17 236.80 L 331.06 240.57 L 329.85 244.31 L 328.53 248.00 L 327.10 251.66 L 325.57 255.28 L 323.94 258.85 L 322.20 262.37 L 320.37 265.84 L 318.43 269.26 L 316.40 272.62 L 314.28 275.93 L 312.06 279.16 L 309.75 282.34 L 307.34 285.45 L 304.85 288.48 L 302.28 291.45 L 299.62 294.34 L 296.88 297.15 L 294.06 299.88 L 291.16 302.53 L 288.19 305.10 L 285.15 307.58 L 282.03 309.97 L 278.85 312.28 L 275.61 314.49 L 272.30 316.61 L 268.93 318.63 L 265.51 320.55 L 262.03 322.38 L 258.50 324.10 L 254.93 325.72 L 251.31 327.25 L 247.64 328.66 L 243.94 329.97 L 240.20 331.18 L 236.43 332.27 L 232.63 333.26 L 228.81 334.14 L 224.96 334.91 L 221.08 335.57 L 217.20 336.12 L 213.29 336.55 L 209.38 336.88 L 205.46 337.09 L 201.53 337.19 L 197.61 337.18 L 193.68 337.05 L 189.76 336.82 L 185.85 336.47 L 181.95 336.01 L 178.06 335.44 L 174.20 334.75 L 170.35 333.96 L 166.53 333.05 L 162.74 332.04 L 158.97 330.92 L 155.24 329.69 L 151.55 328.36 L 147.89 326.92 L 144.28 325.38 L 140.72 323.73 L 137.20 321.98 L 133.74 320.14 L 130.32 318.19 L 126.97 316.15 L 123.68 314.01 L 120.44 311.78 L 117.28 309.46 L 114.18 307.05 L 111.15 304.55 L 108.20 301.96 L 105.31 299.29 L 102.51 296.54 L 99.79 293.71 L 97.15 290.80 L 94.59 287.82 L 92.12 284.77 L 89.74 281.65 L 87.45 278.46 L 85.25 275.21 L 83.14 271.89 L 81.13 268.52 L 79.22 265.09 L 77.41 261.60 L 75.70 258.07 L 74.08 254.49 L 72.58 250.86 L 71.17 247.20 L 69.87 243.49 L 68.68 239.75 L 67.60 235.97 L 66.62 232.17 L 65.76 228.34 L 65.00 224.48 L 64.36 220.61 L 63.82 216.72 L 63.40 212.82 L 63.09 208.90 L 62.89 204.98 L 62.80 201.05 L 62.83 197.13 L 62.97 193.20 L 63.22 189.28 L 63.58 185.37 L 64.06 181.47 L 64.64 177.59 L 65.34 173.73 L 66.15 169.88 L 67.06 166.07 L 68.09 162.27 L 69.22 158.51 L 70.46 154.79 L 71.81 151.10 L 73.26 147.45 L 74.82 143.85 L 76.48 140.29 L 78.24 136.78 L 80.10 133.32 L 82.05 129.91 L 84.11 126.57 L 86.26 123.28 L 88.50 120.05 L 90.83 116.90 L 93.26 113.81 L 95.77 110.79 L 98.36 107.84 L 101.04 104.97 L 103.80 102.18 L 106.64 99.46 L 109.56 96.83 L 112.55 94.29 L 115.61 91.83 L 118.74 89.45 L 121.93 87.17 L 125.20 84.99 L 128.52 82.89 L 131.90 80.90 L 135.33 78.99 L 138.82 77.19 L 142.36 75.49 L 145.95 73.89 L 149.58 72.40 L 153.25 71.01 L 156.97 69.72 L 160.71 68.55 L 164.49 67.47" stroke-width="0.7" opacity="0.55"/>
<path d="M 173.19 58.92 L 193.42 47.91 L 213.79 57.21 L 228.81 69.94 L 228.81 74.84 L 213.79 87.57 L 193.42 96.87 L 173.19 85.85 Z" fill="#ffffff" stroke="#111111" stroke-width="2.4"/>
<path d="M 228.81 72.39 L 191.28 72.39" stroke-width="1.3"/>
<circle cx="197.71" cy="62.11" r="3.1" fill="#111111" stroke="none"/>
<circle cx="197.71" cy="62.11" r="6.2" stroke-width="0.9"/>
<path d="M 183.77 57.70 Q 195.03 54.76 206.29 59.66" stroke-width="0.9"/>
</svg>